<svg xmlns="http://www.w3.org/2000/svg" style="width: 140px;" viewBox="0 0 1373.37 1085.07"><defs><style>.cls-1{opacity:0.75;}.cls-2{fill:none;stroke:#fff;stroke-miterlimit:10;stroke-width:7px;}.cls-3{fill:#fff;stroke:#fff;stroke-miterlimit:20;stroke-width:4px;}</style></defs><g id="Layer_2" data-name="Layer 2"><g id="Calque_1" data-name="Calque 1"><g class="cls-1"><path class="cls-2" d="M456.63,586.13v-366c0-119.65,97-216.64,216.64-216.64h26.82c119.65,0,216.64,97,216.64,216.64v366Z"/><rect class="cls-2" x="456.63" y="550.07" width="369.79" height="36.06"/><rect class="cls-2" x="500.38" y="514.01" width="369.79" height="36.06"/><rect class="cls-2" x="546.94" y="477.95" width="369.79" height="36.06"/><circle class="cls-2" cx="686.68" cy="240.41" r="79.84"/><line class="cls-2" x1="686.68" y1="160.56" x2="686.68" y2="47.87"/><line class="cls-2" x1="656.13" y1="166.64" x2="613" y2="62.53"/><line class="cls-2" x1="630.22" y1="183.95" x2="550.54" y2="104.26"/><line class="cls-2" x1="612.92" y1="209.85" x2="508.8" y2="166.73"/><line class="cls-2" x1="606.84" y1="240.41" x2="494.15" y2="240.41"/><line class="cls-2" x1="612.92" y1="270.96" x2="508.8" y2="314.09"/><line class="cls-2" x1="630.22" y1="296.86" x2="550.54" y2="376.55"/><line class="cls-2" x1="656.13" y1="314.17" x2="613" y2="418.29"/><line class="cls-2" x1="686.68" y1="320.25" x2="686.68" y2="432.94"/><line class="cls-2" x1="717.24" y1="314.17" x2="760.36" y2="418.29"/><line class="cls-2" x1="743.14" y1="296.86" x2="822.82" y2="376.55"/><line class="cls-2" x1="760.45" y1="270.96" x2="864.56" y2="314.09"/><line class="cls-2" x1="766.52" y1="240.41" x2="879.22" y2="240.41"/><line class="cls-2" x1="760.45" y1="209.85" x2="864.56" y2="166.73"/><line class="cls-2" x1="743.14" y1="183.95" x2="822.82" y2="104.26"/><line class="cls-2" x1="717.24" y1="166.64" x2="760.36" y2="62.53"/></g><path class="cls-3" d="M263.24,773.28c-8.41,14.3-18.35,27.52-30.55,38.84C214,829.46,193.3,843.74,169.85,854a201.53,201.53,0,0,1-41.76,13.41c-9.74,1.91-19.5,3.1-29.57,2.09-8.88-.89-17.74-1.49-26.77-4.58-4.67,17.53-9.2,34.43-13.68,51.33C51.56,940.76,45.63,965.49,38,989.73c-.46,1.45-.84,2.93-1.42,4.32-1.17,2.78-3.73,4.21-6,3.44-1.93-.68-2.93-3.07-2.42-6,.95-5.3,2-10.58,2.88-15.89,5.68-34.44,14.94-68,24.42-101.54q16.83-59.54,34-119c3.6-12.46,8.18-24.6,12.6-36.79a25.21,25.21,0,0,1,1.23-2.76,2.91,2.91,0,0,1,3.23-1.89,3.44,3.44,0,0,1,3,3,10.39,10.39,0,0,1-.4,4.49c-3.08,11.54-6.2,23.08-9.16,34.65C93.05,782.94,86.23,810,79.33,837.1c-1.41,5.54-3,11-4.49,16.57-.32,1.13-.79,2.23-.06,3.74,4.14.43,8.46,1,12.78,1.29A140.94,140.94,0,0,0,135,853.26a212.42,212.42,0,0,0,73-37,173.18,173.18,0,0,0,50-60.76,94.69,94.69,0,0,0,8.6-29.45,73,73,0,0,0,0-22.61c-2.68-15.15-11.07-25.72-25-32a82.19,82.19,0,0,0-29.35-6.78c-19.89-1.09-39.28,2.13-58.38,7.29a288.38,288.38,0,0,0-58.38,22.38C78,703.44,62.09,714.72,48.64,729.2,29.56,749.73,17.76,774,12.76,801.51c-.41,2.27-.06,4.67-.06,7.14,1.23.79,2.16-.41,3.22-.53a5.52,5.52,0,0,1,6.35,6.41c-.48,4.1-4,7.62-8.72,8.83a9.93,9.93,0,0,1-11-4.33,17.32,17.32,0,0,1-2.48-8.12c-.48-7.24,1.46-14.06,3.43-20.83C10.24,767,21,745.91,36.87,727.71a170.6,170.6,0,0,1,42-34.65c25.9-15.33,53.87-25.45,83.05-32.24,16.26-3.79,32.8-6.17,49.58-5.4,12.35.57,24.4,2.77,35.75,8,19.37,8.9,29.62,24.26,31.68,45.24C281.19,732,275,753.37,263.24,773.28Z"/><path class="cls-3" d="M378.67,903.91c-3.4,1.44-6.84,2.78-10.27,4.16-12.1,4.86-23,11.89-33.91,18.86A98.94,98.94,0,0,1,319,935.45c-.47.19-.92.42-1.39.6-8.33,3.13-14.93-.89-15.89-9.77a42.93,42.93,0,0,1,1.46-15.5c.84-3.21,1.73-6.41,2.86-10.6-5.62,4.35-10.35,8.25-15.32,11.81-7.66,5.5-15.41,10.87-24.84,13.1-12,2.84-20.68-5.66-18.21-17.85,1.63-8.07,5.24-15.24,9.6-22.1a11.49,11.49,0,0,1,3.36-3,3.68,3.68,0,0,1,4.69-.06c1.59,1.2,2.41,2.77,1.67,4.85-1.19,3.33-2.38,6.66-3.54,10-1.48,4.29-3.06,8.55-4.36,12.9-1.57,5.17.48,7.52,5.75,6.48a49.19,49.19,0,0,0,15.76-6.63,163.4,163.4,0,0,0,26-19.93,21.57,21.57,0,0,1,2.68-2.3c4.12-2.68,8.64-.76,9.59,4.1a12.46,12.46,0,0,1-.42,6c-2,6.94-4.07,13.88-6,20.86a18.42,18.42,0,0,0-.34,9.73c2.43,1.11,4.28-.06,6.1-.71,7.66-2.76,14.51-7.09,21.56-11a175.52,175.52,0,0,1,33.74-14.5c2.39-.74,4.94-2.34,7.75-1C381.67,903.05,379.94,903.36,378.67,903.91Z"/><path class="cls-3" d="M510.18,903.1c-8,4.64-16,9.24-24.18,13.64q-20.24,10.95-40.61,21.59a87.12,87.12,0,0,1-24.7,8.64c-1.48.28-3,.38-4.5.52-11,1-17.84-7-19.8-14.49-1.53-5.89-2.13-11.91-2.91-17.91-.11-.83-.08-1.68-.2-2.52-.94-6.48-1.51-7.07-7.93-8.47-1.65-.36-3.29-.71-4.92-1.13-12.9-3.32-15.66-12.05-14-22.49a45,45,0,0,1,6.71-16.79c2.19-3.48,5-6.4,9-7.85a8,8,0,0,1,10.23,4,12.45,12.45,0,0,1,.71,9.35,41.85,41.85,0,0,1-9.61,17c-1.23,1.32-2.49,2.63-3.78,4,2.58,2.46,5.77,2.83,8.63,3.14,11.17,1.22,14.71,7,16.41,17.85.83,5.32,1.32,10.68,2.06,16,1.21,8.82,3.54,10.86,12.27,10s16.78-3.69,24.51-7.46c17.11-8.33,34.09-16.95,51.14-25.39,4.22-2.09,8.56-3.95,12.84-5.91,1.9-.87,3.87-1.53,5.59.15C514.15,899.64,513.23,901.32,510.18,903.1Z"/><path class="cls-3" d="M596.75,901.76c-.49,2.2-2.27,3-3.9,4.06a103.18,103.18,0,0,1-19.53,9.31c-13.07,4.83-26.45,7.79-40.46,6.71-8.83-.68-16.73-3.71-22.64-10.7a27.93,27.93,0,0,1-.77-34.63c6.87-9.1,16.84-5.58,20.64.81a11.3,11.3,0,0,1,.7,10.62,19.38,19.38,0,0,1-6.67,8.09,29,29,0,0,1-8.68,5c3.72,7.33,9.81,10.54,16.86,12.38,6.62,1.72,13.42,1.5,20.09.81a107,107,0,0,0,31.14-7.79c2.93-1.25,5.77-2.71,8.66-4.06C593.52,901.79,594.82,900.84,596.75,901.76ZM513.23,896a24.43,24.43,0,0,0,8.76-5,13.15,13.15,0,0,0,4-5.73c1.08-2.88-.21-5.68-3.08-7.14s-5.4-1.09-7.1,1.54C512.68,884.49,511.86,889.81,513.23,896Z"/><path class="cls-3" d="M900.07,899.49c.94,1.39.41,2.64-2.35,4.93-3.37,2.79-6.73,5.6-10.23,8.23a186.63,186.63,0,0,0-31,28.92,52.06,52.06,0,0,1-15,11.9,24.29,24.29,0,0,1-7.6,2.65c-6.93,1.22-12.12-1.82-16.37-6.88-6.3-7.5-10.06-16.29-12.39-25.72-1.41-5.72-2.71-11.46-4-17.19a16.41,16.41,0,0,0-2.66-6c-2-2.81-4.27-3.43-7.48-2-6.44,2.91-11.39,7.68-16,12.92-6.41,7.3-9.62,16.11-12.13,25.27a24.56,24.56,0,0,1-1.53,4.79c-1.82,3.5-6,3.68-8.23.42a13.65,13.65,0,0,1-1.68-4.2,189.63,189.63,0,0,1-6.23-46.41c-.32-27.17,4.09-53.65,11-79.8a420.87,420.87,0,0,1,20.46-59.67,259.09,259.09,0,0,1,24.71-44.6c9.66-14,19.66-27.8,31.69-40,6.29-6.36,12.75-12.5,20.36-17.33a43.3,43.3,0,0,1,16.38-6.36c10.86-1.76,21.2,2.34,27.81,14a42,42,0,0,1,5,16.8c1.78,17.91-2.28,34.76-8.85,51.21-7.28,18.21-16.71,35.33-26.92,52A746.36,746.36,0,0,1,821.17,843a481.64,481.64,0,0,1-51.81,57.38c-3.07,2.89-6.19,5.73-9.46,8.39a5.31,5.31,0,0,0-2.13,4.77,50.14,50.14,0,0,0,1.31,9,61.48,61.48,0,0,1,15.2-21.89c4.45-4.14,9.19-8,15-10.09,7-2.56,13.43-.14,17.29,6.34a36.45,36.45,0,0,1,4,10.33c2.24,9.49,3.93,19.14,8.11,28.07a43.39,43.39,0,0,0,7,11.08c2.47,2.72,5.23,3.9,9,2.65a33.82,33.82,0,0,0,13-7.57c4-3.84,8-7.76,11.7-11.91,9-10.11,19.45-18.63,30.31-26.67a53,53,0,0,1,4.64-3C897.39,898,899,897.93,900.07,899.49Zm-142.37,1.8c.89-.21,1.32-1,1.86-1.57,6.89-7.84,13.73-15.75,20.7-23.51,9-10,17.62-20.4,26.19-30.8,11.57-14.06,22.3-28.74,32.91-43.52,17.44-24.29,33-49.66,44.61-77.29,6.18-14.72,10.31-29.94,9.28-46.11-.42-6.6-1.6-13-5.65-18.58-3.19-4.36-7.26-6.82-12.81-6.78a27.19,27.19,0,0,0-14.33,4.3c-7.22,4.46-13.36,10.26-19.08,16.46-7.66,8.3-14.4,17.35-21,26.48a292.8,292.8,0,0,0-41.2,79.55c-7,20.93-13,42.1-16.66,63.91-2.26,13.61-4.48,27.21-4.85,41-.11,3.86.09,7.75-.55,11.6A6.74,6.74,0,0,0,757.7,901.29Z"/><path class="cls-3" d="M1051.15,903.26a25.79,25.79,0,0,1-8,6.11,83.09,83.09,0,0,1-13.63,5.31,164.32,164.32,0,0,1-35.64,6.58c-17,1.27-33.93,2.32-51.38,1.83-2.46,7.87-5.09,15.15-9.42,21.65-2.81,4.19-5.65,8.4-10.11,11.12-7.18,4.4-14.54,3.18-19.76-3.43-5.09-6.43-5.77-13.89-4.41-21.6a77,77,0,0,1,5.8-18.61c-2.21-2.65-4.1-4.8-5.85-7-5.11-6.51-7.68-13.63-3.78-21.58,3.41-7,9.23-11.22,17-11.92a16,16,0,0,1,10.94,3.18c11.35,8.39,18.74,19.18,20.3,33.51.18,1.66.49,3.31.77,5.14,6.89,1.82,13.79,1.21,20.64.9,2.34-.11,4.7-.4,7.05-.45,13.29-.33,26.6-.88,39.69-3.25,11.77-2.12,23.41-4.93,33.51-11.92a24.8,24.8,0,0,1,2.22-1.19c1.68-.92,3.23-.85,4.52.69S1052.72,901.43,1051.15,903.26Zm-116.53,9.63c-.34-5.32-1.09-9.75-3-13.93a39.94,39.94,0,0,0-11.84-15.53c-3.42-2.67-7.25-4-11.24-1.58-5.16,3.08-8.27,8.52-4.52,15a16.53,16.53,0,0,0,5.41,5.73c1.77-.51,2.46-2,3.6-2.94a8.11,8.11,0,0,1,6-2.21c3,.28,4.34,2.78,2.94,5.44-.92,1.75-2.48,3.16-3,5.31A60.73,60.73,0,0,0,934.62,912.89Zm-1.8,9.37c-5.43-1.79-11.05-2.79-16.24-5a7.17,7.17,0,0,0-2-.13,101.6,101.6,0,0,0-5.29,19.08,17.78,17.78,0,0,0,.52,7.91c1.58,5.43,5.56,6.6,9.87,2.95a22.76,22.76,0,0,0,5-5.67,66.87,66.87,0,0,0,5.81-11.13C931.33,927.74,932.58,925.37,932.82,922.26Z"/><path class="cls-3" d="M1174.1,903.91c-3.39,1.44-6.84,2.78-10.27,4.16-12.09,4.86-23,11.89-33.91,18.86a98.94,98.94,0,0,1-15.46,8.52c-.46.19-.92.42-1.39.6-8.33,3.13-14.92-.89-15.89-9.77a42.94,42.94,0,0,1,1.47-15.5c.83-3.21,1.72-6.41,2.85-10.6-5.61,4.35-10.35,8.25-15.32,11.81-7.66,5.5-15.41,10.87-24.84,13.1-12,2.84-20.68-5.66-18.21-17.85,1.63-8.07,5.24-15.24,9.6-22.1a11.62,11.62,0,0,1,3.36-3,3.68,3.68,0,0,1,4.69-.06c1.59,1.2,2.41,2.77,1.67,4.85-1.19,3.33-2.38,6.66-3.53,10-1.48,4.29-3.07,8.55-4.37,12.9-1.56,5.17.48,7.52,5.76,6.48a49.14,49.14,0,0,0,15.75-6.63,163,163,0,0,0,26-19.93,21.57,21.57,0,0,1,2.68-2.3c4.12-2.68,8.64-.76,9.6,4.1a12.46,12.46,0,0,1-.43,6c-2,6.94-4.06,13.88-6,20.86a18.63,18.63,0,0,0-.34,9.73c2.44,1.11,4.28-.06,6.11-.71,7.65-2.76,14.5-7.09,21.55-11a175.6,175.6,0,0,1,33.75-14.5c2.39-.74,4.93-2.34,7.75-1C1177.1,903.05,1175.38,903.36,1174.1,903.91Z"/><path class="cls-3" d="M1289.62,904.24a39.72,39.72,0,0,1-4.75,4.52,119.41,119.41,0,0,1-15.3,9.81c-17.21,9.41-35.57,16-54.15,22-13.29,4.31-26.28,9.43-39.46,14.06-2.9,1-4.25,2.81-5.26,5.52-4,10.63-9,20.76-16.48,29.38-6.43,7.39-14.22,12.83-23.89,15.34a18.76,18.76,0,0,1-12.33-1.1c-7-2.95-10.13-10.23-7.66-17.63,2.07-6.19,6.5-10.53,11.69-14.17,8.19-5.75,17.32-9.74,26.31-14a85.23,85.23,0,0,1,8.87-3.65,7.16,7.16,0,0,0,4.93-5.25,163.68,163.68,0,0,0,4.4-19.17,296.35,296.35,0,0,0,3.14-33.66c.37-9.08,2.8-17.65,9.37-24.47a16.32,16.32,0,0,1,3.48-2.9c3.12-1.83,6.5-2.27,9.54-.09a9.05,9.05,0,0,1,3.69,8.89c-.66,5.19-3.34,9.49-6.54,13.47-2,2.49-4.17,4.85-6.31,7.23a5.91,5.91,0,0,0-2,4,211.27,211.27,0,0,1-5.91,45.38c3.47-1.15,6.44-2.16,9.43-3.13,16.8-5.41,33.64-10.73,50.42-16.23a181.39,181.39,0,0,0,46.06-22.65c2.08-1.43,4.21-2.79,6.34-4.15a1.78,1.78,0,1,1,2.34,2.67Zm-132.85,58.57c-8.88,4.31-16.66,8.23-24.14,12.74-3.87,2.33-7.69,4.79-10.72,8.26-2.85,3.25-3.85,6.9-2.48,9.12s5.91,3.14,9.76,1.73a32.09,32.09,0,0,0,10-5.74C1147.15,982.11,1152.2,973.35,1156.77,962.81ZM1187,878.68c-3.32,4.82-3.56,5.34-4.13,9.1A21.39,21.39,0,0,0,1187,878.68Z"/><path class="cls-3" d="M1373.37,901.76c-.49,2.2-2.27,3-3.9,4.06a102.6,102.6,0,0,1-19.53,9.31c-13.07,4.83-26.45,7.79-40.46,6.71-8.83-.68-16.73-3.71-22.64-10.7-8.61-10.18-8.21-24.76-.77-34.63,6.87-9.1,16.84-5.58,20.65.81a11.33,11.33,0,0,1,.69,10.62,19.38,19.38,0,0,1-6.67,8.09,29,29,0,0,1-8.68,5c3.72,7.33,9.81,10.54,16.86,12.38,6.62,1.72,13.43,1.5,20.09.81a107.14,107.14,0,0,0,31.15-7.79c2.92-1.25,5.76-2.71,8.65-4.06C1370.14,901.79,1371.44,900.84,1373.37,901.76ZM1289.85,896a24.48,24.48,0,0,0,8.77-5,13.12,13.12,0,0,0,4-5.73c1.08-2.88-.21-5.68-3.08-7.14s-5.4-1.09-7.1,1.54C1289.3,884.49,1288.48,889.81,1289.85,896Z"/><path class="cls-3" d="M410.36,1026.83h1.72L437,1062.34l25-35.51h1.64v57.26h-1.81v-54.23L437,1065.2H437l-24.79-35.34v54.23h-1.8Z"/><path class="cls-3" d="M506.46,1026.42H508l27.57,57.67h-2l-8.18-17.17H489l-8.18,17.17H478.9Zm18.16,38.86L507.2,1028.8l-17.42,36.48Z"/><path class="cls-3" d="M550.87,1026.83h23.39c7.45,0,12.93,1.88,16.45,5.4a14.6,14.6,0,0,1,4.09,10.64v.16c0,9.65-7.69,15.38-18.74,16l19.06,25h-2.2l-19-24.95H552.67v24.95h-1.8Zm22.5,30.68c13.24,0,19.63-6.3,19.63-14.4V1043c0-9.08-7-14.48-18.89-14.48H552.67v29Z"/><path class="cls-3" d="M613.85,1026.83h23.39c7.45,0,12.93,1.88,16.45,5.4a14.6,14.6,0,0,1,4.09,10.64v.16c0,9.65-7.69,15.38-18.73,16l19.05,25h-2.2l-19-24.95H615.65v24.95h-1.8Zm22.5,30.68c13.24,0,19.63-6.3,19.63-14.4V1043c0-9.08-7-14.48-18.9-14.48H615.65v29Z"/><path class="cls-3" d="M698.09,1026.42h1.56l27.57,57.67h-2l-8.19-17.17H680.59l-8.18,17.17h-1.88Zm18.16,38.86-17.42-36.48-17.42,36.48Z"/><path class="cls-3" d="M742.5,1026.83h1.8v38.69l39.6-38.69h2.53L761.56,1051l25.77,33.13h-2.21l-24.78-31.9-16,15.63v16.27h-1.8Z"/><path class="cls-3" d="M803.92,1026.83h40v1.64h-38.2v26H840.4v1.64H805.72v26.34h38.61v1.63H803.92Z"/><path class="cls-3" d="M857.17,1055.63v-.17c0-16.11,11.78-29.61,28.13-29.61,10.8,0,16.45,4,21.76,9.08l-1.23,1.23c-4.57-4.42-10.39-8.67-20.61-8.67-15.21,0-26.26,12.92-26.26,27.89v.16c0,15.14,11.21,27.9,26.26,27.9a28.17,28.17,0,0,0,20.86-9.33l1.31,1.23a29.89,29.89,0,0,1-22.25,9.73C869,1085.07,857.17,1071.82,857.17,1055.63Z"/><path class="cls-3" d="M922.84,1026.83h1.8v27.57h40.9v-27.57h1.8v57.26h-1.8v-28h-40.9v28h-1.8Z"/></g></g></svg>